<svg width="21" height="22" viewBox="0 0 21 22" fill="none" xmlns="http://www.w3.org/2000/svg">
<path d="M14.5001 20.5268V17.6568C14.5376 17.18 14.4732 16.7006 14.3111 16.2506C14.149 15.8006 13.893 15.3902 13.5601 15.0468C16.7001 14.6968 20.0001 13.5068 20.0001 8.04679C19.9998 6.65062 19.4628 5.30799 18.5001 4.29679C18.9559 3.0753 18.9237 1.72514 18.4101 0.526793C18.4101 0.526793 17.2301 0.176793 14.5001 2.00679C12.2081 1.38561 9.79215 1.38561 7.50014 2.00679C4.77014 0.176793 3.59014 0.526793 3.59014 0.526793C3.07651 1.72514 3.04428 3.0753 3.50014 4.29679C2.53026 5.31549 1.99266 6.67026 2.00014 8.07679C2.00014 13.4968 5.30013 14.6868 8.44013 15.0768C8.11113 15.4168 7.8574 15.8222 7.69544 16.2667C7.53349 16.7112 7.46694 17.1849 7.50014 17.6568V20.5268" stroke="white" stroke-linecap="round" stroke-linejoin="round"/>
<path d="M7.50012 18.5266C4.50012 19.4998 2.00012 18.5266 0.500122 15.5266" stroke="white" stroke-linecap="round" stroke-linejoin="round"/>
</svg>
