<svg width="21" height="21" viewBox="0 0 21 21" fill="none" xmlns="http://www.w3.org/2000/svg">
<path d="M10.5 14.8478C12.9012 14.8478 14.8478 12.9012 14.8478 10.5C14.8478 8.09875 12.9012 6.15216 10.5 6.15216C8.09875 6.15216 6.15216 8.09875 6.15216 10.5C6.15216 12.9012 8.09875 14.8478 10.5 14.8478Z" stroke="white" stroke-linecap="round" stroke-linejoin="round"/>
<path d="M15.2826 0.5H5.71739C2.83591 0.5 0.5 2.83591 0.5 5.71739V15.2826C0.5 18.1641 2.83591 20.5 5.71739 20.5H15.2826C18.1641 20.5 20.5 18.1641 20.5 15.2826V5.71739C20.5 2.83591 18.1641 0.5 15.2826 0.5Z" stroke="white" stroke-linecap="round" stroke-linejoin="round"/>
<path d="M16.1522 5.7174C16.6324 5.7174 17.0217 5.32808 17.0217 4.84784C17.0217 4.36759 16.6324 3.97827 16.1522 3.97827C15.6719 3.97827 15.2826 4.36759 15.2826 4.84784C15.2826 5.32808 15.6719 5.7174 16.1522 5.7174Z" fill="white"/>
</svg>
