<svg width="22" height="21" viewBox="0 0 22 21" fill="none" xmlns="http://www.w3.org/2000/svg">
<path d="M12.2204 8.91744V7.00524H7.73382C7.79372 8.27186 7.73382 20.4996 7.73382 20.4996H12.2204V12.9634C12.2204 12.5593 12.2507 12.1576 12.3691 11.8693C12.6939 11.0631 13.4311 10.2288 14.6717 10.2288C16.2949 10.2288 16.9441 11.4666 16.9441 13.2803V20.5H21.4299V12.7617C21.4299 8.61649 19.2168 6.68841 16.2642 6.68804C13.8811 6.68804 12.8158 7.99977 12.2204 8.91744ZM12.2204 8.91744C12.2117 8.93224 12.1998 8.9474 12.1912 8.96147H12.2204V8.91744ZM3.03902 0.5C1.50428 0.5 0.5 1.5068 0.5 2.8308C0.5 4.12629 1.47469 5.16377 2.97948 5.16377H3.00979C4.57376 5.16377 5.54736 4.12629 5.54736 2.8308C5.51813 1.5068 4.57412 0.5 3.03902 0.5ZM0.765955 20.4996H5.25182V7.0056H0.765955V20.4996Z" stroke="white" stroke-miterlimit="10" stroke-linecap="round" stroke-linejoin="round"/>
</svg>
