<svg width="26" height="21" viewBox="0 0 26 21" fill="none" xmlns="http://www.w3.org/2000/svg">
<path d="M25.4846 2.8742C24.5275 3.26995 23.5173 3.52251 22.4865 3.62375C23.5242 2.98704 24.3165 2.01865 24.7351 0.875442C23.7311 1.47301 22.6328 1.89544 21.4871 2.12467C21.0376 1.60686 20.4806 1.1933 19.855 0.912827C19.2293 0.632349 18.55 0.491697 17.8643 0.500674C17.1992 0.489797 16.5385 0.610705 15.9204 0.856426C15.3022 1.10215 14.7388 1.46782 14.2627 1.93235C13.7865 2.39688 13.407 2.95108 13.1461 3.56299C12.8852 4.1749 12.748 4.83241 12.7425 5.49759C12.7222 5.87667 12.7644 6.25651 12.8674 6.62188C10.8911 6.55992 8.95177 6.06989 7.18324 5.18563C5.4147 4.30137 3.85908 3.04392 2.62372 1.50005C2.09919 2.22448 1.83504 3.10499 1.87418 3.99852C1.88067 4.83497 2.08838 5.65758 2.47975 6.39685C2.87113 7.13613 3.43468 7.77035 4.1228 8.24594C3.33527 8.12919 2.57425 7.87552 1.87418 7.4964V7.62132C1.80472 8.76814 2.16179 9.90015 2.87671 10.7996C3.59162 11.699 4.61387 12.3022 5.7468 12.4933C5.29742 12.6026 4.83435 12.6447 4.37265 12.6182C4.03467 12.6385 3.69586 12.5961 3.37327 12.4933C3.68986 13.5053 4.32079 14.39 5.17444 15.019C6.02809 15.648 7.06001 15.9886 8.12036 15.9912C6.29383 17.3914 4.05069 18.1392 1.74929 18.1149C1.32899 18.1353 0.90799 18.0932 0.500061 17.9899C3.11867 19.7382 6.22342 20.6127 9.36953 20.4884C18.7388 20.4884 22.9861 12.7431 22.9861 6.1222V5.49759C23.9726 4.78356 24.8195 3.89433 25.4846 2.8742Z" stroke="white" stroke-linecap="round" stroke-linejoin="round"/>
</svg>
